<svg width="1920" height="513" viewBox="0 0 1920 513" fill="none" xmlns="http://www.w3.org/2000/svg">
<rect width="1920" height="513" fill="#86ADEF"/>
<path fill-rule="evenodd" clip-rule="evenodd" d="M1653.73 93.6951L1638 85.1772L1651.11 76L1653.73 93.6951Z" stroke="white" stroke-opacity="0.2" stroke-width="2"/>
<path fill-rule="evenodd" clip-rule="evenodd" d="M125.73 99.6951L110 91.1772L123.106 82L125.73 99.6951Z" stroke="white" stroke-opacity="0.2" stroke-width="2"/>
<path fill-rule="evenodd" clip-rule="evenodd" d="M1742.6 263.437L1766.08 263.206L1756.87 282.08L1742.6 263.437Z" stroke="white" stroke-opacity="0.2" stroke-width="3"/>
<path fill-rule="evenodd" clip-rule="evenodd" d="M187.603 375.437L211.08 375.206L201.875 394.08L187.603 375.437Z" stroke="white" stroke-opacity="0.2" stroke-width="3"/>
<path fill-rule="evenodd" clip-rule="evenodd" d="M1695.93 127.16L1686.22 148.536L1673 132.216L1695.93 127.16Z" stroke="white" stroke-opacity="0.2" stroke-width="3"/>
<path fill-rule="evenodd" clip-rule="evenodd" d="M1120.93 76.16L1111.22 97.5358L1098 81.2157L1120.93 76.16Z" stroke="white" stroke-opacity="0.2" stroke-width="3"/>
<path fill-rule="evenodd" clip-rule="evenodd" d="M173.928 191.16L164.216 212.536L151 196.216L173.928 191.16Z" stroke="white" stroke-opacity="0.2" stroke-width="3"/>
<path fill-rule="evenodd" clip-rule="evenodd" d="M1708.5 432C1711.54 432 1714 429.538 1714 426.5C1714 423.462 1711.54 421 1708.5 421C1705.46 421 1703 423.462 1703 426.5C1703 429.538 1705.46 432 1708.5 432Z" stroke="white" stroke-opacity="0.2" stroke-width="3"/>
<path fill-rule="evenodd" clip-rule="evenodd" d="M1739 124C1746.18 124 1752 118.18 1752 111C1752 103.82 1746.18 98 1739 98C1731.82 98 1726 103.82 1726 111C1726 118.18 1731.82 124 1739 124Z" stroke="white" stroke-opacity="0.2" stroke-width="3"/>
<path fill-rule="evenodd" clip-rule="evenodd" d="M1164 73C1171.18 73 1177 67.1797 1177 60C1177 52.8203 1171.18 47 1164 47C1156.82 47 1151 52.8203 1151 60C1151 67.1797 1156.82 73 1164 73Z" stroke="white" stroke-opacity="0.2" stroke-width="3"/>
<path fill-rule="evenodd" clip-rule="evenodd" d="M1843.5 366C1849.3 366 1854 361.299 1854 355.5C1854 349.701 1849.3 345 1843.5 345C1837.7 345 1833 349.701 1833 355.5C1833 361.299 1837.7 366 1843.5 366Z" stroke="white" stroke-opacity="0.2" stroke-width="3"/>
<path fill-rule="evenodd" clip-rule="evenodd" d="M224 140C231.18 140 237 134.18 237 127C237 119.82 231.18 114 224 114C216.82 114 211 119.82 211 127C211 134.18 216.82 140 224 140Z" stroke="white" stroke-opacity="0.2" stroke-width="3"/>
<path fill-rule="evenodd" clip-rule="evenodd" d="M72 327C76.4183 327 80 323.418 80 319C80 314.582 76.4183 311 72 311C67.5817 311 64 314.582 64 319C64 323.418 67.5817 327 72 327Z" stroke="white" stroke-opacity="0.2" stroke-width="3"/>
</svg>
